<svg width="1200" height="720" viewBox="0 0 1200 720" fill="none" xmlns="http://www.w3.org/2000/svg">
  <defs>
    <linearGradient id="bg2" x1="0" y1="0" x2="1200" y2="720" gradientUnits="userSpaceOnUse">
      <stop stop-color="#0A1F1B"/>
      <stop offset="1" stop-color="#143A32"/>
    </linearGradient>
    <linearGradient id="pane" x1="0" y1="0" x2="1" y2="1">
      <stop stop-color="#114138"/>
      <stop offset="1" stop-color="#1B4D43"/>
    </linearGradient>
  </defs>

  <rect width="1200" height="720" rx="32" fill="url(#bg2)"/>
  <rect x="36" y="36" width="1128" height="648" rx="24" fill="#0A2A24" stroke="#2A7362"/>

  <rect x="70" y="80" width="1060" height="78" rx="14" fill="#113B34" stroke="#2A7362"/>
  <text x="98" y="128" fill="#D9FFF1" font-family="Arial" font-size="26" font-weight="700">Análise Avançada de Precificação</text>

  <rect x="70" y="184" width="510" height="226" rx="16" fill="url(#pane)" stroke="#2A7362"/>
  <text x="94" y="222" fill="#D9FFF1" font-family="Arial" font-size="21" font-weight="700">Comparativo por Categoria</text>
  <rect x="108" y="260" width="70" height="120" rx="8" fill="#34D399"/>
  <rect x="196" y="284" width="70" height="96" rx="8" fill="#22C55E"/>
  <rect x="284" y="238" width="70" height="142" rx="8" fill="#60A5FA"/>
  <rect x="372" y="304" width="70" height="76" rx="8" fill="#FBBF24"/>
  <rect x="460" y="270" width="70" height="110" rx="8" fill="#F87171"/>

  <rect x="620" y="184" width="510" height="226" rx="16" fill="url(#pane)" stroke="#2A7362"/>
  <text x="644" y="222" fill="#D9FFF1" font-family="Arial" font-size="21" font-weight="700">Evolução de Lucro</text>
  <g opacity="0.25" stroke="#8BCFB7">
    <line x1="644" y1="366" x2="1102" y2="366"/>
    <line x1="644" y1="326" x2="1102" y2="326"/>
    <line x1="644" y1="286" x2="1102" y2="286"/>
    <line x1="644" y1="246" x2="1102" y2="246"/>
  </g>
  <polyline points="644,360 700,344 756,322 812,308 868,286 924,274 980,256 1036,240 1092,226" fill="none" stroke="#67E8B3" stroke-width="6" stroke-linecap="round" stroke-linejoin="round"/>

  <rect x="70" y="438" width="1060" height="212" rx="16" fill="url(#pane)" stroke="#2A7362"/>
  <text x="94" y="476" fill="#D9FFF1" font-family="Arial" font-size="21" font-weight="700">Distribuição Estratégica</text>

  <circle cx="230" cy="548" r="74" fill="#0A2A24"/>
  <path d="M230 548 L230 474 A74 74 0 0 1 299 586 Z" fill="#3B82F6"/>
  <path d="M230 548 L299 586 A74 74 0 0 1 190 610 Z" fill="#10B981"/>
  <path d="M230 548 L190 610 A74 74 0 0 1 230 474 Z" fill="#F87171"/>
  <circle cx="230" cy="548" r="34" fill="#15463C"/>

  <rect x="360" y="500" width="730" height="110" rx="12" fill="#143F36" stroke="#2A7362"/>
  <text x="390" y="540" fill="#D9FFF1" font-family="Arial" font-size="20" font-weight="700">Preço Sugerido Médio: R$ 1.278,40</text>
  <text x="390" y="575" fill="#9EF3D8" font-family="Arial" font-size="18">Precisão da margem e segurança tributária em tempo real</text>
</svg>
