<svg width="1200" height="720" viewBox="0 0 1200 720" fill="none" xmlns="http://www.w3.org/2000/svg">
  <defs>
    <linearGradient id="bg" x1="0" y1="0" x2="1200" y2="720" gradientUnits="userSpaceOnUse">
      <stop stop-color="#081F1B"/>
      <stop offset="1" stop-color="#0E322C"/>
    </linearGradient>
    <linearGradient id="card" x1="0" y1="0" x2="1" y2="1">
      <stop stop-color="#0F3A33"/>
      <stop offset="1" stop-color="#123F37"/>
    </linearGradient>
    <linearGradient id="line1" x1="0" y1="0" x2="1" y2="1">
      <stop stop-color="#67E8B3"/>
      <stop offset="1" stop-color="#34D399"/>
    </linearGradient>
    <linearGradient id="line2" x1="0" y1="0" x2="1" y2="1">
      <stop stop-color="#FDE68A"/>
      <stop offset="1" stop-color="#FBBF24"/>
    </linearGradient>
  </defs>

  <rect width="1200" height="720" rx="32" fill="url(#bg)"/>
  <rect x="36" y="36" width="1128" height="648" rx="24" fill="#0A2A24" stroke="#235D51"/>

  <rect x="68" y="78" width="330" height="120" rx="16" fill="url(#card)" stroke="#2D7A6A"/>
  <text x="92" y="120" fill="#D9FFF1" font-family="Arial" font-size="22" font-weight="700">Receita projetada</text>
  <text x="92" y="160" fill="#9FFFD9" font-family="Arial" font-size="42" font-weight="700">R$ 82.430</text>

  <rect x="420" y="78" width="330" height="120" rx="16" fill="url(#card)" stroke="#2D7A6A"/>
  <text x="444" y="120" fill="#D9FFF1" font-family="Arial" font-size="22" font-weight="700">Margem média</text>
  <text x="444" y="160" fill="#9FFFD9" font-family="Arial" font-size="42" font-weight="700">47,8%</text>

  <rect x="772" y="78" width="330" height="120" rx="16" fill="url(#card)" stroke="#2D7A6A"/>
  <text x="796" y="120" fill="#D9FFF1" font-family="Arial" font-size="22" font-weight="700">Procedimentos</text>
  <text x="796" y="160" fill="#9FFFD9" font-family="Arial" font-size="42" font-weight="700">214</text>

  <rect x="68" y="228" width="676" height="420" rx="18" fill="#0E352E" stroke="#2D7A6A"/>
  <text x="94" y="270" fill="#D9FFF1" font-family="Arial" font-size="22" font-weight="700">Performance Mensal</text>

  <g opacity="0.25" stroke="#7AC7AF">
    <line x1="94" y1="580" x2="718" y2="580"/>
    <line x1="94" y1="520" x2="718" y2="520"/>
    <line x1="94" y1="460" x2="718" y2="460"/>
    <line x1="94" y1="400" x2="718" y2="400"/>
    <line x1="94" y1="340" x2="718" y2="340"/>
  </g>

  <polyline points="94,560 172,540 250,500 328,470 406,450 484,420 562,385 640,360 718,330" fill="none" stroke="url(#line1)" stroke-width="6" stroke-linecap="round" stroke-linejoin="round"/>
  <polyline points="94,575 172,570 250,560 328,548 406,520 484,510 562,488 640,470 718,452" fill="none" stroke="url(#line2)" stroke-width="4" stroke-linecap="round" stroke-linejoin="round"/>

  <rect x="766" y="228" width="336" height="420" rx="18" fill="#0E352E" stroke="#2D7A6A"/>
  <text x="792" y="270" fill="#D9FFF1" font-family="Arial" font-size="22" font-weight="700">Mix de Custos</text>

  <circle cx="934" cy="410" r="120" fill="#0A2A24"/>
  <path d="M934 410 L934 290 A120 120 0 0 1 1049 450 Z" fill="#3B82F6"/>
  <path d="M934 410 L1049 450 A120 120 0 0 1 860 503 Z" fill="#10B981"/>
  <path d="M934 410 L860 503 A120 120 0 0 1 934 290 Z" fill="#F87171"/>
  <circle cx="934" cy="410" r="58" fill="#0E352E"/>

  <rect x="792" y="560" width="12" height="12" fill="#3B82F6"/><text x="812" y="571" fill="#D9FFF1" font-family="Arial" font-size="16">Margem</text>
  <rect x="924" y="560" width="12" height="12" fill="#10B981"/><text x="944" y="571" fill="#D9FFF1" font-family="Arial" font-size="16">Custo Direto</text>
  <rect x="1064" y="560" width="12" height="12" fill="#F87171"/><text x="1084" y="571" fill="#D9FFF1" font-family="Arial" font-size="16">Impostos</text>
</svg>
